<?xml version="1.0" encoding="utf-8"?>
<!-- Generator: Adobe Illustrator 27.6.1, SVG Export Plug-In . SVG Version: 6.00 Build 0)  -->
<svg version="1.1" id="Слой_1" xmlns="http://www.w3.org/2000/svg" xmlns:xlink="http://www.w3.org/1999/xlink" x="0px" y="0px"
	 viewBox="0 0 1080 1080" style="enable-background:new 0 0 1080 1080;" xml:space="preserve">
<style type="text/css">
	.st0{fill:#021A8E;}
	.st1{fill:#FFFFFF;}
</style>
<g>
	<path class="st0" d="M540-0.02C241.77-0.02,0,241.75,0,540.02c0,298.23,241.77,540,540,540s540-241.77,540-540
		C1080,241.75,838.23-0.02,540-0.02z"/>
	<polygon class="st1" points="490.3,298.06 540,326.74 589.7,298.06 589.7,430.68 490.3,430.68 	"/>
	<polygon class="st1" points="788.42,786.04 689.06,786.04 539.74,699.83 390.94,785.74 390.42,786.04 291.54,786.04 291.54,293.96 
		390.94,351.38 390.94,671.01 490.3,613.62 490.3,530.04 589.7,530.04 589.7,613.92 689.06,671.27 689.06,351.35 788.42,293.96 	"/>
</g>
</svg>
